<?xml version="1.0" encoding="utf-8"?>
<!-- Generator: Adobe Illustrator 27.0.1, SVG Export Plug-In . SVG Version: 6.00 Build 0)  -->
<svg version="1.1" xmlns="http://www.w3.org/2000/svg" xmlns:xlink="http://www.w3.org/1999/xlink" x="0px" y="0px"
	 viewBox="0 0 16 16" style="enable-background:new 0 0 16 16;" xml:space="preserve">
<g id="Calque_2">
</g>
<g id="Calque_1">
	<path  fill="white" d="M7.92,13.31c0.83-1.62,1.65-3.22,2.47-4.84c0.17,0.08,0.33,0.17,0.49,0.25c-0.01,0.03-0.02,0.05-0.03,0.07
		c-0.69,1.36-1.39,2.72-2.08,4.08c-0.14,0.27-0.28,0.54-0.42,0.82c-0.02,0.03-0.03,0.07-0.05,0.11c-0.04,0.06-0.07,0.13-0.12,0.18
		C8.04,14.13,7.83,14.14,7.67,14c-0.09-0.07-0.14-0.17-0.18-0.27c-0.15-0.38-0.31-0.76-0.46-1.14c-0.85-2.08-1.69-4.16-2.54-6.25
		c-0.01-0.03-0.02-0.05-0.04-0.1c-1,1.91-2,3.82-3,5.74c0.33,0,0.64,0,0.96,0c0.32,0,0.64,0,0.95,0c0.31,0,0.63,0,0.94,0
		c0.32,0,0.64,0,0.95,0c0.31,0,0.63,0,0.95,0c0,0.19,0,0.36,0,0.55c-0.03,0-0.07,0-0.1,0c-0.81,0-1.63,0-2.44,0
		c-0.77,0-1.55,0-2.32,0c-0.05,0-0.1,0-0.14-0.01c-0.31-0.06-0.46-0.37-0.33-0.65c0.04-0.08,0.08-0.16,0.12-0.24
		C2,9.71,3.02,7.77,4.03,5.83c0.03-0.06,0.06-0.11,0.1-0.16c0.19-0.25,0.52-0.23,0.69,0.04c0.03,0.05,0.06,0.1,0.08,0.16
		c0.73,1.79,1.45,3.58,2.18,5.37c0.27,0.66,0.54,1.32,0.8,1.98C7.89,13.25,7.91,13.27,7.92,13.31z"/>
	<path  fill="white" d="M9.96,3.15C9.08,4.84,8.21,6.52,7.34,8.21C7.17,8.12,7.01,8.04,6.85,7.96C6.86,7.93,6.87,7.9,6.88,7.88
		c0.89-1.72,1.78-3.44,2.67-5.16c0.04-0.07,0.08-0.14,0.15-0.2c0.16-0.13,0.38-0.13,0.54,0.02c0.06,0.05,0.1,0.12,0.14,0.19
		c0.34,0.69,0.68,1.37,1.02,2.06c1.11,2.24,2.22,4.48,3.33,6.72c0.06,0.12,0.12,0.24,0.18,0.36c0.05,0.1,0.07,0.21,0.05,0.33
		c-0.04,0.19-0.2,0.32-0.41,0.34c-0.03,0-0.07,0-0.1,0c-1.46,0-2.92,0-4.38,0c-0.03,0-0.06,0-0.1,0c0-0.18,0-0.36,0-0.56
		c0.13,0,0.26,0,0.39,0c0.13,0,0.27,0,0.4,0c0.13,0,0.26,0,0.39,0c0.13,0,0.27,0,0.4,0c0.13,0,0.26,0,0.39,0c0.13,0,0.27,0,0.4,0
		c0.13,0,0.26,0,0.39,0c0.13,0,0.27,0,0.4,0c0.13,0,0.26,0,0.39,0c0.13,0,0.27,0,0.4,0c0.13,0,0.26,0,0.41,0
		C12.88,9.04,11.42,6.1,9.96,3.15z"/>
</g>
</svg>
