<?xml version="1.0" encoding="UTF-8"?><svg id="Calque_1" xmlns="http://www.w3.org/2000/svg" viewBox="0 0 633.11 633.11"><defs><style>.cls-1{fill:none;}.cls-1,.cls-2{stroke:#1d1d1b;stroke-miterlimit:10;stroke-width:15px;}.cls-3{fill:#1d1d1b;}.cls-2{fill:#fff;}</style></defs><circle class="cls-2" cx="316.56" cy="316.56" r="309.06"/><path class="cls-1" d="M273.45,356.97H140.57c-3.48,0-5.72-3.7-4.11-6.79l85.9-164.18c2.55-4.88,6.33-4.69,8.41,.4l84.35,207.62c2.63,6.48,6.55,6.34,8.71-.31l69.15-135.29"/><path class="cls-1" d="M297.27,244.35l73.26-141.32c2.28-4.41,5.96-4.37,8.17,.08l122.22,246.63c1.97,3.97,.12,7.22-4.1,7.22h-122.13"/><g><path class="cls-3" d="M156.46,457.74l-1.41-4.72h-11.73l-1.41,4.72h-11l12.22-33.5h12.51l12.22,33.5h-11.39Zm-10.91-12.22h7.25l-3.51-11.93h-.19l-3.56,11.93Z"/><path class="cls-3" d="M178.32,457.74l-11.88-33.5h11.49l6.72,22.4h.19l6.77-22.4h11l-11.83,33.5h-12.47Z"/><path class="cls-3" d="M226.77,457.74l-1.41-4.72h-11.73l-1.41,4.72h-11l12.22-33.5h12.51l12.22,33.5h-11.39Zm-10.91-12.22h7.25l-3.51-11.93h-.19l-3.56,11.93Z"/><path class="cls-3" d="M266.16,457.74l-14.07-16.26v16.26h-9.89v-33.5h9.4l14.07,16.51v-16.51h9.89v33.5h-9.4Z"/><path class="cls-3" d="M302.05,432.81v24.93h-10.76v-24.93h-11v-8.57h32.72v8.57h-10.96Z"/><path class="cls-3" d="M321.28,441.62h-4.63l3.46-8.86h-3.46v-8.52h9.06v8.03l-4.43,9.35Z"/><path class="cls-3" d="M353.91,457.74l-1.41-4.72h-11.74l-1.41,4.72h-11l12.22-33.5h12.52l12.22,33.5h-11.39Zm-10.91-12.22h7.25l-3.51-11.93h-.19l-3.56,11.93Z"/><path class="cls-3" d="M369.34,424.24h10.76v24.93h17.19v8.57h-27.95v-33.5Z"/><path class="cls-3" d="M426.17,425.67c1.62,.96,2.89,2.27,3.8,3.94,.91,1.67,1.36,3.55,1.36,5.62v.63c0,2.08-.45,3.96-1.36,5.65-.91,1.68-2.17,3.01-3.8,3.97-1.63,.96-3.47,1.44-5.55,1.44h-8.03v10.81h-10.76v-33.5h18.79c2.08,0,3.93,.48,5.55,1.44Zm-13.59,13.41h4.43c1.14,0,1.99-.29,2.56-.88,.57-.58,.85-1.38,.85-2.38v-.39c0-1.04-.29-1.84-.85-2.41-.57-.57-1.42-.85-2.56-.85h-4.43v6.92Z"/><path class="cls-3" d="M436.98,424.24h28.97v8.03h-18.21v4.62h15.58v7.69h-15.58v5.11h18.55v8.03h-29.31v-33.5Z"/><path class="cls-3" d="M496.77,426.26c2.76,1.73,4.17,4.31,4.24,7.72v.58h-10.08v-.19c0-.97-.36-1.78-1.07-2.44-.71-.65-1.8-.97-3.26-.97s-2.52,.21-3.29,.63c-.76,.42-1.14,.94-1.14,1.56,0,.88,.52,1.53,1.56,1.95,1.04,.43,2.71,.86,5.01,1.32,2.69,.55,4.91,1.13,6.65,1.73,1.73,.6,3.25,1.59,4.55,2.95s1.97,3.21,2,5.55c0,3.96-1.34,6.9-4.02,8.81-2.68,1.92-6.26,2.87-10.74,2.87-5.23,0-9.29-.88-12.2-2.63-2.91-1.75-4.36-4.85-4.36-9.3h10.18c0,1.69,.43,2.82,1.31,3.38,.87,.57,2.24,.85,4.09,.85,1.36,0,2.49-.14,3.38-.44,.89-.29,1.34-.89,1.34-1.8,0-.81-.49-1.42-1.49-1.83-.99-.4-2.6-.83-4.85-1.29-2.73-.58-4.98-1.19-6.77-1.83-1.79-.63-3.35-1.68-4.68-3.14-1.33-1.46-1.99-3.44-1.99-5.94,0-3.67,1.42-6.37,4.26-8.11,2.84-1.74,6.44-2.6,10.79-2.6s7.81,.86,10.57,2.6Z"/></g><g><path class="cls-3" d="M133.07,471.96h4.65c5.71,0,8.77,3.32,8.77,9.22s-3.06,9.36-8.67,9.36h-4.75v-18.58Zm4.47,16.64c4.34,0,6.51-2.72,6.51-7.42s-2.16-7.28-6.51-7.28h-2.11v14.7h2.11Z"/><path class="cls-3" d="M150.47,471.96h10.71v2h-8.34v5.82h7.04v2h-7.04v6.75h8.63v2h-10.99v-18.58Z"/><path class="cls-3" d="M164.03,488.11l1.42-1.62c1.34,1.39,3.19,2.3,5.12,2.3,2.44,0,3.88-1.21,3.88-3.02s-1.35-2.5-3.1-3.27l-2.67-1.18c-1.73-.74-3.76-2.05-3.76-4.78s2.47-4.93,5.85-4.93c2.2,0,4.16,.96,5.47,2.3l-1.25,1.52c-1.14-1.08-2.5-1.74-4.22-1.74-2.08,0-3.46,1.05-3.46,2.71,0,1.79,1.62,2.46,3.07,3.07l2.65,1.15c2.15,.92,3.83,2.2,3.83,4.96,0,2.93-2.43,5.28-6.33,5.28-2.61,0-4.88-1.06-6.5-2.76Z"/><path class="cls-3" d="M186.14,471.96h2.85l3.56,9.93c.45,1.27,.87,2.58,1.32,3.87h.11c.45-1.29,.84-2.6,1.28-3.87l3.52-9.93h2.85v18.58h-2.2v-10.23c0-1.62,.18-3.85,.3-5.49h-.11l-1.47,4.24-3.5,9.61h-1.57l-3.52-9.61-1.47-4.24h-.11c.12,1.64,.3,3.88,.3,5.49v10.23h-2.14v-18.58Z"/><path class="cls-3" d="M205.62,481.18c0-5.95,3.27-9.56,7.94-9.56s7.94,3.62,7.94,9.56-3.27,9.7-7.94,9.7-7.94-3.75-7.94-9.7Zm13.44,0c0-4.63-2.18-7.48-5.5-7.48s-5.5,2.85-5.5,7.48,2.18,7.62,5.5,7.62,5.5-2.99,5.5-7.62Z"/><path class="cls-3" d="M225.49,471.96h2.44l6.73,11.68,2,3.84h.11c-.12-1.87-.3-3.97-.3-5.91v-9.61h2.25v18.58h-2.44l-6.73-11.69-2-3.84h-.11c.12,1.88,.3,3.86,.3,5.8v9.72h-2.25v-18.58Z"/><path class="cls-3" d="M247.66,473.96h-5.62v-2h13.6v2h-5.62v16.57h-2.36v-16.57Z"/><path class="cls-3" d="M261.64,471.96h2.67l6.28,18.58h-2.5l-3.24-10.38c-.67-2.08-1.26-4.12-1.86-6.26h-.11c-.58,2.15-1.17,4.18-1.84,6.26l-3.28,10.38h-2.4l6.28-18.58Zm-2.98,11.03h8.55v1.88h-8.55v-1.88Z"/><path class="cls-3" d="M271.85,481.26c0-5.99,3.6-9.65,8.53-9.65,2.57,0,4.27,1.17,5.36,2.29l-1.3,1.54c-.94-.97-2.13-1.75-4-1.75-3.74,0-6.15,2.88-6.15,7.5s2.21,7.59,6.17,7.59c1.33,0,2.62-.4,3.35-1.09v-4.84h-3.94v-1.96h6.09v7.81c-1.2,1.25-3.23,2.16-5.73,2.16-4.9,0-8.39-3.58-8.39-9.61Z"/><path class="cls-3" d="M290.38,471.96h2.44l6.73,11.68,2,3.84h.11c-.12-1.87-.3-3.97-.3-5.91v-9.61h2.25v18.58h-2.44l-6.73-11.69-2-3.84h-.11c.12,1.88,.3,3.86,.3,5.8v9.72h-2.25v-18.58Z"/><path class="cls-3" d="M308.68,471.96h10.71v2h-8.34v5.82h7.04v2h-7.04v6.75h8.62v2h-10.99v-18.58Z"/><path class="cls-3" d="M322.24,488.11l1.41-1.62c1.34,1.39,3.2,2.3,5.13,2.3,2.44,0,3.89-1.21,3.89-3.02s-1.35-2.5-3.1-3.27l-2.67-1.18c-1.73-.74-3.76-2.05-3.76-4.78s2.47-4.93,5.85-4.93c2.2,0,4.17,.96,5.47,2.3l-1.25,1.52c-1.14-1.08-2.5-1.74-4.22-1.74-2.08,0-3.46,1.05-3.46,2.71,0,1.79,1.62,2.46,3.07,3.07l2.65,1.15c2.15,.92,3.83,2.2,3.83,4.96,0,2.93-2.43,5.28-6.33,5.28-2.61,0-4.87-1.06-6.5-2.76Z"/><path class="cls-3" d="M344.35,471.96h4.65c5.71,0,8.77,3.32,8.77,9.22s-3.06,9.36-8.67,9.36h-4.75v-18.58Zm4.47,16.64c4.34,0,6.51-2.72,6.51-7.42s-2.16-7.28-6.51-7.28h-2.11v14.7h2.11Z"/><path class="cls-3" d="M360.98,477.25c1.42-.94,2.15-1.92,2.15-3.55l-.33-1.87,1.17,1.44c-.34,.34-.65,.49-1.09,.49-.78,0-1.5-.51-1.5-1.43,0-.98,.62-1.57,1.5-1.57,1.12,0,1.78,.92,1.78,2.56,0,2.26-1.06,3.89-3.02,5.02l-.66-1.09Z"/><path class="cls-3" d="M370.96,471.96h2.67l6.29,18.58h-2.5l-3.24-10.38c-.67-2.08-1.27-4.12-1.86-6.26h-.11c-.58,2.15-1.17,4.18-1.84,6.26l-3.27,10.38h-2.4l6.28-18.58Zm-2.98,11.03h8.55v1.88h-8.55v-1.88Z"/><path class="cls-3" d="M379.61,471.96h2.5l3,10.04c.65,2.19,1.1,3.96,1.78,6.14h.11c.69-2.18,1.15-3.95,1.79-6.14l2.98-10.04h2.4l-5.9,18.58h-2.74l-5.93-18.58Z"/><path class="cls-3" d="M400.13,471.96h2.67l6.29,18.58h-2.5l-3.24-10.38c-.67-2.08-1.26-4.12-1.86-6.26h-.11c-.58,2.15-1.17,4.18-1.84,6.26l-3.27,10.38h-2.41l6.29-18.58Zm-2.98,11.03h8.55v1.88h-8.55v-1.88Z"/><path class="cls-3" d="M411.59,471.96h2.44l6.72,11.68,2.01,3.84h.11c-.12-1.87-.3-3.97-.3-5.91v-9.61h2.24v18.58h-2.44l-6.72-11.69-2.01-3.84h-.11c.12,1.88,.3,3.86,.3,5.8v9.72h-2.24v-18.58Z"/><path class="cls-3" d="M433.76,473.96h-5.62v-2h13.6v2h-5.62v16.57h-2.36v-16.57Z"/><path class="cls-3" d="M447.74,471.96h2.67l6.29,18.58h-2.5l-3.24-10.38c-.67-2.08-1.26-4.12-1.86-6.26h-.11c-.58,2.15-1.17,4.18-1.84,6.26l-3.27,10.38h-2.41l6.29-18.58Zm-2.98,11.03h8.55v1.88h-8.55v-1.88Z"/><path class="cls-3" d="M457.95,481.26c0-5.99,3.6-9.65,8.53-9.65,2.58,0,4.27,1.17,5.36,2.29l-1.3,1.54c-.94-.97-2.13-1.75-4-1.75-3.75,0-6.15,2.88-6.15,7.5s2.21,7.59,6.17,7.59c1.33,0,2.61-.4,3.35-1.09v-4.84h-3.93v-1.96h6.09v7.81c-1.19,1.25-3.23,2.16-5.72,2.16-4.9,0-8.39-3.58-8.39-9.61Z"/><path class="cls-3" d="M476.48,471.96h10.71v2h-8.34v5.82h7.04v2h-7.04v6.75h8.62v2h-10.99v-18.58Z"/><path class="cls-3" d="M490.04,488.11l1.42-1.62c1.34,1.39,3.19,2.3,5.12,2.3,2.44,0,3.89-1.21,3.89-3.02s-1.35-2.5-3.1-3.27l-2.67-1.18c-1.73-.74-3.76-2.05-3.76-4.78s2.47-4.93,5.85-4.93c2.2,0,4.17,.96,5.47,2.3l-1.25,1.52c-1.14-1.08-2.5-1.74-4.22-1.74-2.08,0-3.46,1.05-3.46,2.71,0,1.79,1.62,2.46,3.07,3.07l2.65,1.15c2.15,.92,3.83,2.2,3.83,4.96,0,2.93-2.43,5.28-6.33,5.28-2.61,0-4.87-1.06-6.5-2.76Z"/></g></svg>