<?xml version="1.0" encoding="utf-8"?>
<!-- Generator: Adobe Illustrator 27.0.1, SVG Export Plug-In . SVG Version: 6.00 Build 0)  -->
<svg version="1.1" id="Calque_1" xmlns="http://www.w3.org/2000/svg" xmlns:xlink="http://www.w3.org/1999/xlink" x="0px" y="0px"
	 viewBox="0 0 799.37 799.37" style="enable-background:new 0 0 799.37 799.37;" xml:space="preserve">
<style type="text/css">
	.st0{stroke:#FFFFFF;stroke-width:15;stroke-miterlimit:10;}
	.st1{fill:none;stroke:#FFFFFF;stroke-width:15;stroke-miterlimit:10;}
	.st2{fill:#FFFFFF;}
</style>
<circle class="st0" cx="399.78" cy="399.69" r="309.06"/>
<path class="st1" d="M356.68,440.11H223.8c-3.48,0-5.72-3.7-4.11-6.79l85.9-164.18c2.55-4.88,6.33-4.69,8.41,0.4l84.35,207.62
	c2.63,6.48,6.55,6.34,8.71-0.31l69.15-135.29"/>
<path class="st1" d="M380.5,327.49l73.26-141.32c2.28-4.41,5.96-4.37,8.17,0.08l122.22,246.63c1.97,3.97,0.12,7.22-4.1,7.22H457.91"
	/>
<g>
	<path class="st2" d="M239.69,540.87l-1.41-4.72h-11.73l-1.41,4.72h-11l12.22-33.5h12.51l12.22,33.5H239.69z M228.78,528.65h7.25
		l-3.51-11.93h-0.19L228.78,528.65z"/>
	<path class="st2" d="M261.55,540.87l-11.88-33.5h11.49l6.72,22.4h0.19l6.77-22.4h11l-11.83,33.5H261.55z"/>
	<path class="st2" d="M310,540.87l-1.41-4.72h-11.73l-1.41,4.72h-11l12.22-33.5h12.51l12.22,33.5H310z M299.1,528.65h7.25
		l-3.51-11.93h-0.19L299.1,528.65z"/>
	<path class="st2" d="M349.39,540.87l-14.07-16.26v16.26h-9.89v-33.5h9.4l14.07,16.51v-16.51h9.89v33.5H349.39z"/>
	<path class="st2" d="M385.28,515.94v24.93h-10.76v-24.93h-11v-8.57h32.72v8.57H385.28z"/>
	<path class="st2" d="M404.51,524.75h-4.63l3.46-8.86h-3.46v-8.52h9.06v8.03L404.51,524.75z"/>
	<path class="st2" d="M437.13,540.87l-1.41-4.72h-11.74l-1.41,4.72h-11l12.22-33.5h12.52l12.22,33.5H437.13z M426.23,528.65h7.25
		l-3.51-11.93h-0.19L426.23,528.65z"/>
	<path class="st2" d="M452.57,507.37h10.76v24.93h17.19v8.57h-27.95V507.37z"/>
	<path class="st2" d="M509.4,508.81c1.62,0.96,2.89,2.27,3.8,3.94c0.91,1.67,1.36,3.55,1.36,5.62v0.63c0,2.08-0.45,3.96-1.36,5.65
		c-0.91,1.68-2.17,3.01-3.8,3.97c-1.63,0.96-3.47,1.44-5.55,1.44h-8.03v10.81h-10.76v-33.5h18.79
		C505.92,507.37,507.77,507.85,509.4,508.81z M495.81,522.22h4.43c1.14,0,1.99-0.29,2.56-0.88c0.57-0.58,0.85-1.38,0.85-2.38v-0.39
		c0-1.04-0.29-1.84-0.85-2.41c-0.57-0.57-1.42-0.85-2.56-0.85h-4.43V522.22z"/>
	<path class="st2" d="M520.21,507.37h28.97v8.03h-18.21v4.62h15.58v7.69h-15.58v5.11h18.55v8.03h-29.31V507.37z"/>
	<path class="st2" d="M580,509.39c2.76,1.73,4.17,4.31,4.24,7.72v0.58h-10.08v-0.19c0-0.97-0.36-1.78-1.07-2.44
		c-0.71-0.65-1.8-0.97-3.26-0.97c-1.43,0-2.52,0.21-3.29,0.63c-0.76,0.42-1.14,0.94-1.14,1.56c0,0.88,0.52,1.53,1.56,1.95
		c1.04,0.43,2.71,0.86,5.01,1.32c2.69,0.55,4.91,1.13,6.65,1.73c1.73,0.6,3.25,1.59,4.55,2.95c1.3,1.36,1.97,3.21,2,5.55
		c0,3.96-1.34,6.9-4.02,8.81c-2.68,1.92-6.26,2.87-10.74,2.87c-5.23,0-9.29-0.88-12.2-2.63c-2.91-1.75-4.36-4.85-4.36-9.3h10.18
		c0,1.69,0.43,2.82,1.31,3.38c0.87,0.57,2.24,0.85,4.09,0.85c1.36,0,2.49-0.14,3.38-0.44c0.89-0.29,1.34-0.89,1.34-1.8
		c0-0.81-0.49-1.42-1.49-1.83c-0.99-0.4-2.6-0.83-4.85-1.29c-2.73-0.58-4.98-1.19-6.77-1.83c-1.79-0.63-3.35-1.68-4.68-3.14
		c-1.33-1.46-1.99-3.44-1.99-5.94c0-3.67,1.42-6.37,4.26-8.11c2.84-1.74,6.44-2.6,10.79-2.6C573.72,506.79,577.24,507.65,580,509.39
		z"/>
</g>
<g>
	<path class="st2" d="M216.3,555.09h4.65c5.71,0,8.77,3.32,8.77,9.22s-3.06,9.36-8.67,9.36h-4.75V555.09z M220.77,571.73
		c4.34,0,6.51-2.72,6.51-7.42c0-4.7-2.16-7.28-6.51-7.28h-2.11v14.7H220.77z"/>
	<path class="st2" d="M233.69,555.09h10.71v2h-8.34v5.82h7.04v2h-7.04v6.75h8.63v2h-10.99V555.09z"/>
	<path class="st2" d="M247.26,571.25l1.42-1.62c1.34,1.39,3.19,2.3,5.12,2.3c2.44,0,3.88-1.21,3.88-3.02c0-1.89-1.35-2.5-3.1-3.27
		l-2.67-1.18c-1.73-0.74-3.76-2.05-3.76-4.78c0-2.84,2.47-4.93,5.85-4.93c2.2,0,4.16,0.96,5.47,2.3l-1.25,1.52
		c-1.14-1.08-2.5-1.74-4.22-1.74c-2.08,0-3.46,1.05-3.46,2.71c0,1.79,1.62,2.46,3.07,3.07l2.65,1.15c2.15,0.92,3.83,2.2,3.83,4.96
		c0,2.93-2.43,5.28-6.33,5.28C251.15,574.01,248.88,572.94,247.26,571.25z"/>
	<path class="st2" d="M269.37,555.09h2.85l3.56,9.93c0.45,1.27,0.87,2.58,1.32,3.87h0.11c0.45-1.29,0.84-2.6,1.28-3.87l3.52-9.93
		h2.85v18.58h-2.2v-10.23c0-1.62,0.18-3.85,0.3-5.49h-0.11l-1.47,4.24l-3.5,9.61h-1.57l-3.52-9.61l-1.47-4.24h-0.11
		c0.12,1.64,0.3,3.88,0.3,5.49v10.23h-2.14V555.09z"/>
	<path class="st2" d="M288.85,564.31c0-5.95,3.27-9.56,7.94-9.56c4.67,0,7.94,3.62,7.94,9.56c0,5.95-3.27,9.7-7.94,9.7
		C292.13,574.01,288.85,570.26,288.85,564.31z M302.29,564.31c0-4.63-2.18-7.48-5.5-7.48s-5.5,2.85-5.5,7.48
		c0,4.63,2.18,7.62,5.5,7.62S302.29,568.94,302.29,564.31z"/>
	<path class="st2" d="M308.71,555.09h2.44l6.73,11.68l2,3.84H320c-0.12-1.87-0.3-3.97-0.3-5.91v-9.61h2.25v18.58h-2.44l-6.73-11.69
		l-2-3.84h-0.11c0.12,1.88,0.3,3.86,0.3,5.8v9.72h-2.25V555.09z"/>
	<path class="st2" d="M330.88,557.09h-5.62v-2h13.6v2h-5.62v16.57h-2.36V557.09z"/>
	<path class="st2" d="M344.87,555.09h2.67l6.28,18.58h-2.5l-3.24-10.38c-0.67-2.08-1.26-4.12-1.86-6.26h-0.11
		c-0.58,2.15-1.17,4.18-1.84,6.26l-3.28,10.38h-2.4L344.87,555.09z M341.89,566.12h8.55v1.88h-8.55V566.12z"/>
	<path class="st2" d="M355.08,564.4c0-5.99,3.6-9.65,8.53-9.65c2.57,0,4.27,1.17,5.36,2.29l-1.3,1.54c-0.94-0.97-2.13-1.75-4-1.75
		c-3.74,0-6.15,2.88-6.15,7.5c0,4.67,2.21,7.59,6.17,7.59c1.33,0,2.62-0.4,3.35-1.09V566h-3.94v-1.96h6.09v7.81
		c-1.2,1.25-3.23,2.16-5.73,2.16C358.56,574.01,355.08,570.43,355.08,564.4z"/>
	<path class="st2" d="M373.61,555.09h2.44l6.73,11.68l2,3.84h0.11c-0.12-1.87-0.3-3.97-0.3-5.91v-9.61h2.25v18.58h-2.44l-6.73-11.69
		l-2-3.84h-0.11c0.12,1.88,0.3,3.86,0.3,5.8v9.72h-2.25V555.09z"/>
	<path class="st2" d="M391.91,555.09h10.71v2h-8.34v5.82h7.04v2h-7.04v6.75h8.62v2h-10.99V555.09z"/>
	<path class="st2" d="M405.47,571.25l1.41-1.62c1.34,1.39,3.2,2.3,5.13,2.3c2.44,0,3.89-1.21,3.89-3.02c0-1.89-1.35-2.5-3.1-3.27
		l-2.67-1.18c-1.73-0.74-3.76-2.05-3.76-4.78c0-2.84,2.47-4.93,5.85-4.93c2.2,0,4.17,0.96,5.47,2.3l-1.25,1.52
		c-1.14-1.08-2.5-1.74-4.22-1.74c-2.08,0-3.46,1.05-3.46,2.71c0,1.79,1.62,2.46,3.07,3.07l2.65,1.15c2.15,0.92,3.83,2.2,3.83,4.96
		c0,2.93-2.43,5.28-6.33,5.28C409.36,574.01,407.1,572.94,405.47,571.25z"/>
	<path class="st2" d="M427.58,555.09h4.65c5.71,0,8.77,3.32,8.77,9.22s-3.06,9.36-8.67,9.36h-4.75V555.09z M432.05,571.73
		c4.34,0,6.51-2.72,6.51-7.42c0-4.7-2.16-7.28-6.51-7.28h-2.11v14.7H432.05z"/>
	<path class="st2" d="M444.21,560.39c1.42-0.94,2.15-1.92,2.15-3.55l-0.33-1.87l1.17,1.44c-0.34,0.34-0.65,0.49-1.09,0.49
		c-0.78,0-1.5-0.51-1.5-1.43c0-0.98,0.62-1.57,1.5-1.57c1.12,0,1.78,0.92,1.78,2.56c0,2.26-1.06,3.89-3.02,5.02L444.21,560.39z"/>
	<path class="st2" d="M454.19,555.09h2.67l6.29,18.58h-2.5l-3.24-10.38c-0.67-2.08-1.27-4.12-1.86-6.26h-0.11
		c-0.58,2.15-1.17,4.18-1.84,6.26l-3.27,10.38h-2.4L454.19,555.09z M451.21,566.12h8.55v1.88h-8.55V566.12z"/>
	<path class="st2" d="M462.83,555.09h2.5l3,10.04c0.65,2.19,1.1,3.96,1.78,6.14h0.11c0.69-2.18,1.15-3.95,1.79-6.14l2.98-10.04h2.4
		l-5.9,18.58h-2.74L462.83,555.09z"/>
	<path class="st2" d="M483.36,555.09h2.67l6.29,18.58h-2.5l-3.24-10.38c-0.67-2.08-1.26-4.12-1.86-6.26h-0.11
		c-0.58,2.15-1.17,4.18-1.84,6.26l-3.27,10.38h-2.41L483.36,555.09z M480.38,566.12h8.55v1.88h-8.55V566.12z"/>
	<path class="st2" d="M494.82,555.09h2.44l6.72,11.68l2.01,3.84h0.11c-0.12-1.87-0.3-3.97-0.3-5.91v-9.61h2.24v18.58h-2.44
		l-6.72-11.69l-2.01-3.84h-0.11c0.12,1.88,0.3,3.86,0.3,5.8v9.72h-2.24V555.09z"/>
	<path class="st2" d="M516.99,557.09h-5.62v-2h13.6v2h-5.62v16.57h-2.36V557.09z"/>
	<path class="st2" d="M530.97,555.09h2.67l6.29,18.58h-2.5l-3.24-10.38c-0.67-2.08-1.26-4.12-1.86-6.26h-0.11
		c-0.58,2.15-1.17,4.18-1.84,6.26l-3.27,10.38h-2.41L530.97,555.09z M527.99,566.12h8.55v1.88h-8.55V566.12z"/>
	<path class="st2" d="M541.18,564.4c0-5.99,3.6-9.65,8.53-9.65c2.58,0,4.27,1.17,5.36,2.29l-1.3,1.54c-0.94-0.97-2.13-1.75-4-1.75
		c-3.75,0-6.15,2.88-6.15,7.5c0,4.67,2.21,7.59,6.17,7.59c1.33,0,2.61-0.4,3.35-1.09V566h-3.93v-1.96h6.09v7.81
		c-1.19,1.25-3.23,2.16-5.72,2.16C544.67,574.01,541.18,570.43,541.18,564.4z"/>
	<path class="st2" d="M559.71,555.09h10.71v2h-8.34v5.82h7.04v2h-7.04v6.75h8.62v2h-10.99V555.09z"/>
	<path class="st2" d="M573.27,571.25l1.42-1.62c1.34,1.39,3.19,2.3,5.12,2.3c2.44,0,3.89-1.21,3.89-3.02c0-1.89-1.35-2.5-3.1-3.27
		l-2.67-1.18c-1.73-0.74-3.76-2.05-3.76-4.78c0-2.84,2.47-4.93,5.85-4.93c2.2,0,4.17,0.96,5.47,2.3l-1.25,1.52
		c-1.14-1.08-2.5-1.74-4.22-1.74c-2.08,0-3.46,1.05-3.46,2.71c0,1.79,1.62,2.46,3.08,3.07l2.65,1.15c2.15,0.92,3.83,2.2,3.83,4.96
		c0,2.93-2.43,5.28-6.33,5.28C577.16,574.01,574.9,572.94,573.27,571.25z"/>
</g>
</svg>
