<?xml version="1.0" encoding="utf-8"?>
<!-- Generator: Adobe Illustrator 27.0.1, SVG Export Plug-In . SVG Version: 6.00 Build 0)  -->
<svg version="1.1" xmlns="http://www.w3.org/2000/svg" xmlns:xlink="http://www.w3.org/1999/xlink" x="0px" y="0px"
	 viewBox="0 0 250 100" style="enable-background:new 0 0 250 100;" xml:space="preserve">
<style type="text/css">
	.st0{fill:#FFFFFF;}
</style>
<g id="Calque_2">
</g>
<g id="Calque_1">
	<path d="M121.03,81.55c-0.32-0.03-0.65-0.07-0.97-0.09c-1.34-0.08-2.67-0.25-3.99-0.5c-2.83-0.54-5.53-1.46-8.11-2.75
		c-2.85-1.43-5.42-3.24-7.72-5.45c-3.66-3.53-6.33-7.7-7.99-12.51c-0.66-1.92-1.12-3.89-1.39-5.9c-0.14-1.04-0.21-2.08-0.27-3.13
		c-0.07-1.21-0.01-2.42,0.08-3.62c0.25-3.19,0.95-6.28,2.16-9.24c3.02-7.33,8.06-12.8,15.11-16.41c2.65-1.36,5.46-2.27,8.39-2.81
		c2.04-0.37,4.09-0.53,6.16-0.5c1.23,0.02,2.46,0.1,3.68,0.26c2.91,0.39,5.72,1.17,8.41,2.34c8.74,3.82,15.31,11.43,17.8,20.64
		c0.42,1.55,0.73,3.12,0.88,4.72c0.07,0.7,0.1,1.39,0.15,2.09c0.01,0.11,0.03,0.22,0.04,0.33c0,0.7,0,1.4,0,2.1
		c-0.01,0.09-0.04,0.19-0.04,0.28c-0.01,1.31-0.17,2.6-0.38,3.88c-0.37,2.25-0.97,4.43-1.84,6.54c-2.69,6.54-7.07,11.65-13.13,15.29
		c-4.34,2.6-9.06,4.03-14.11,4.34c-0.28,0.02-0.55,0.06-0.82,0.09C122.43,81.55,121.73,81.55,121.03,81.55z M92.06,50.09
		c0.01,16.55,13.41,29.87,29.81,29.95c16.51,0.08,30.03-13.25,30.1-29.83c0.07-16.64-13.38-30-29.79-30.09
		C105.62,20.03,92.06,33.44,92.06,50.09z"/>
	<path class="st0" d="M92.06,50.09c0-16.65,13.56-30.06,30.13-29.97c16.4,0.09,29.86,13.45,29.79,30.09
		c-0.07,16.58-13.59,29.9-30.1,29.83C105.47,79.96,92.07,66.64,92.06,50.09z M122.33,56.89c-0.05-0.11-0.08-0.17-0.11-0.24
		c-0.72-1.77-1.43-3.53-2.15-5.3c-1.94-4.79-3.89-9.58-5.84-14.36c-0.06-0.15-0.12-0.29-0.21-0.43c-0.45-0.71-1.32-0.75-1.84-0.1
		c-0.1,0.13-0.19,0.28-0.26,0.42c-2.71,5.18-5.43,10.37-8.14,15.56c-0.11,0.21-0.23,0.42-0.33,0.63c-0.36,0.75,0.07,1.58,0.88,1.73
		c0.12,0.02,0.25,0.02,0.38,0.02c2.07,0,4.13,0,6.2,0c2.18,0,4.35,0,6.53,0c0.09,0,0.18,0,0.27-0.01c0-0.51,0-0.98,0-1.48
		c-0.85,0-1.69,0-2.53,0c-0.85,0-1.7,0-2.55,0c-0.84,0-1.68,0-2.53,0c-0.85,0-1.7,0-2.55,0c-0.84,0-1.68,0-2.56,0
		c2.69-5.14,5.35-10.23,8.03-15.35c0.05,0.11,0.08,0.19,0.11,0.26c2.26,5.57,4.52,11.14,6.79,16.7c0.41,1.02,0.83,2.03,1.24,3.05
		c0.11,0.28,0.25,0.53,0.48,0.73c0.42,0.35,0.99,0.34,1.38-0.05c0.14-0.14,0.23-0.32,0.33-0.49c0.05-0.09,0.08-0.19,0.13-0.28
		c0.37-0.73,0.74-1.46,1.12-2.19c1.86-3.63,3.72-7.27,5.57-10.9c0.03-0.06,0.05-0.12,0.09-0.2c-0.45-0.23-0.87-0.45-1.32-0.67
		C126.74,48.27,124.55,52.56,122.33,56.89z M127.78,29.72c3.91,7.89,7.8,15.74,11.71,23.63c-0.39,0-0.74,0-1.09,0
		c-0.36,0-0.72,0-1.07,0c-0.35,0-0.7,0-1.05,0c-0.36,0-0.72,0-1.07,0c-0.35,0-0.7,0-1.05,0c-0.36,0-0.72,0-1.07,0
		c-0.35,0-0.7,0-1.05,0c-0.36,0-0.72,0-1.07,0c-0.35,0-0.7,0-1.05,0c-0.36,0-0.72,0-1.07,0c-0.35,0-0.69,0-1.05,0
		c0,0.51-0.01,0.99,0,1.48c0.11,0,0.19,0,0.27,0c3.9,0,7.8,0,11.71,0c0.09,0,0.18,0,0.26-0.01c0.57-0.05,0.98-0.39,1.09-0.91
		c0.07-0.31,0.01-0.6-0.13-0.88c-0.16-0.32-0.32-0.64-0.48-0.96c-2.97-5.99-5.94-11.98-8.91-17.97c-0.91-1.84-1.82-3.67-2.73-5.51
		c-0.09-0.19-0.22-0.37-0.37-0.52c-0.4-0.39-1-0.4-1.43-0.04c-0.18,0.14-0.3,0.33-0.4,0.53c-2.38,4.6-4.77,9.19-7.15,13.79
		c-0.03,0.06-0.06,0.12-0.09,0.2c0.44,0.23,0.87,0.45,1.31,0.68C123.1,38.74,125.43,34.25,127.78,29.72z M114.65,60.77
		c0,1.12,0,2.22,0,3.32c0.32,0,0.63,0,0.97,0c0-0.26,0-0.51,0-0.77c0.01-0.25-0.03-0.5,0.03-0.78c0.08,0.09,0.14,0.15,0.2,0.21
		c0.35,0.4,0.69,0.81,1.05,1.21c0.05,0.06,0.12,0.12,0.18,0.13c0.28,0.01,0.57,0.01,0.85,0.01c0-1.12,0-2.21,0-3.31
		c-0.33,0-0.64,0-0.97,0c0,0.27,0,0.52,0,0.78c0,0.26,0.01,0.51-0.01,0.82c-0.1-0.1-0.15-0.16-0.2-0.22
		c-0.36-0.42-0.72-0.85-1.08-1.27c-0.05-0.06-0.12-0.12-0.19-0.12C115.21,60.76,114.94,60.77,114.65,60.77z M136.85,61.58
		c0-0.28,0-0.53,0-0.8c-0.95,0-1.9,0-2.85,0c0,1.1,0,2.2,0,3.31c0.97,0,1.92,0,2.89,0c0-0.26,0-0.51,0-0.79c-0.61,0-1.21,0-1.82,0
		c0-0.18,0-0.32,0-0.49c0.51,0,1.01,0,1.52,0c0-0.27,0-0.51,0-0.77c-0.51,0-1.01,0-1.51,0c0-0.16,0-0.3,0-0.45
		C135.66,61.58,136.24,61.58,136.85,61.58z M140.33,61.79c0.01-0.38-0.11-0.63-0.39-0.81c-0.22-0.15-0.47-0.22-0.74-0.25
		c-0.47-0.05-0.94-0.02-1.36,0.22c-0.29,0.16-0.44,0.41-0.46,0.73c-0.03,0.5,0.17,0.82,0.64,0.99c0.22,0.08,0.44,0.12,0.66,0.19
		c0.16,0.04,0.32,0.08,0.48,0.13c0.1,0.03,0.17,0.09,0.16,0.2c-0.01,0.12-0.11,0.16-0.2,0.17c-0.17,0.01-0.33,0.02-0.5,0
		c-0.15-0.02-0.26-0.11-0.29-0.27c-0.01-0.04-0.02-0.07-0.03-0.11c-0.33,0-0.65,0-0.97,0c-0.06,0.42,0.15,0.85,0.6,1.01
		c0.5,0.18,1.01,0.2,1.52,0.11c0.15-0.03,0.31-0.09,0.45-0.16c0.42-0.22,0.55-0.6,0.52-1.04c-0.03-0.41-0.3-0.63-0.66-0.76
		c-0.19-0.07-0.38-0.1-0.57-0.15c-0.19-0.05-0.39-0.09-0.57-0.16c-0.06-0.02-0.12-0.11-0.14-0.17c-0.02-0.1,0.07-0.15,0.15-0.18
		c0.32-0.13,0.59-0.01,0.73,0.31C139.68,61.79,140,61.79,140.33,61.79z M111.77,60.78c-0.4,1.1-0.8,2.2-1.21,3.31
		c0.39,0,0.74,0,1.09,0c0.05-0.16,0.1-0.3,0.15-0.43c0.39,0,0.77,0,1.15,0c0.05,0.15,0.1,0.3,0.15,0.44c0.37,0,0.74,0,1.13,0
		c-0.41-1.12-0.81-2.22-1.21-3.31C112.6,60.78,112.19,60.78,111.77,60.78z M104.78,60.78c-0.4,1.1-0.8,2.2-1.21,3.32
		c0.38,0,0.73,0,1.09,0c0.05-0.15,0.1-0.3,0.15-0.45c0.39,0,0.76,0,1.15,0c0.05,0.15,0.1,0.3,0.15,0.44c0.38,0,0.74,0,1.13,0
		c-0.41-1.12-0.81-2.22-1.21-3.31C105.6,60.78,105.2,60.78,104.78,60.78z M126.86,64.09c-0.41-1.12-0.81-2.22-1.21-3.31
		c-0.43,0-0.83,0-1.25,0c-0.4,1.1-0.8,2.2-1.21,3.31c0.39,0,0.73,0,1.09,0c0.05-0.15,0.1-0.3,0.15-0.44c0.4,0,0.77,0,1.15,0
		c0.05,0.16,0.1,0.3,0.14,0.44C126.11,64.09,126.47,64.09,126.86,64.09z M130.5,60.79c0,1.1,0,2.2,0,3.31
		c0.36,0,0.71,0.01,1.07-0.01c0-0.37,0-0.71,0-1.06c0.28,0,0.53,0.01,0.79,0c0.49-0.01,0.86-0.27,1-0.71
		c0.08-0.24,0.09-0.48,0.03-0.73c-0.1-0.45-0.4-0.78-0.86-0.8C131.86,60.76,131.19,60.79,130.5,60.79z M109.53,64.09
		c0.39-1.11,0.78-2.2,1.17-3.31c-0.39,0-0.73,0-1.1,0c-0.22,0.72-0.44,1.44-0.65,2.15c-0.02,0-0.03,0-0.05,0.01
		c-0.22-0.72-0.44-1.44-0.65-2.15c-0.39,0-0.75,0-1.14,0c0.4,1.12,0.78,2.21,1.17,3.31C108.7,64.09,109.1,64.09,109.53,64.09z
		 M118.42,60.78c0,0.29,0,0.55,0,0.85c0.36,0,0.71,0,1.09,0c0,0.84,0,1.64,0,2.45c0.37,0,0.71,0,1.08,0c0-0.82,0-1.63,0-2.46
		c0.37,0,0.71,0,1.06,0c0-0.3,0-0.56,0-0.84C120.57,60.78,119.51,60.78,118.42,60.78z M127.28,64.08c0.54,0.05,2.58,0.03,2.76-0.03
		c0-0.26,0.01-0.53,0-0.81c-0.58-0.01-1.14,0-1.71-0.01c0-0.84,0-1.65,0-2.46c-0.36,0-0.7,0-1.05,0
		C127.28,61.89,127.28,62.98,127.28,64.08z M110.59,65.53c-0.11,0-0.19,0-0.28,0c-0.16,0.44-0.31,0.86-0.47,1.34
		c-0.17-0.48-0.33-0.91-0.49-1.35c-0.1,0.01-0.19,0.01-0.27,0.01c0,0.62,0,1.21,0,1.82c0.07,0,0.12,0,0.2,0c0-0.47,0-0.92,0-1.43
		c0.04,0.09,0.06,0.12,0.08,0.15c0.12,0.32,0.23,0.64,0.35,0.96c0.02,0.06,0.08,0.13,0.13,0.15c0.1,0.03,0.12-0.08,0.14-0.15
		c0.11-0.31,0.22-0.61,0.33-0.92c0.02-0.04,0.04-0.08,0.09-0.18c0,0.51,0,0.96,0,1.43c0.07,0,0.13-0.01,0.2-0.01
		C110.59,66.73,110.59,66.14,110.59,65.53z M120.51,66.91c-0.01,0.01-0.03,0.01-0.04,0.02c-0.02-0.04-0.05-0.08-0.07-0.11
		c-0.22-0.38-0.43-0.76-0.65-1.14c-0.1-0.17-0.1-0.17-0.33-0.13c0,0.6,0,1.2,0,1.82c0.08-0.01,0.15-0.01,0.22-0.01
		c0-0.48,0-0.93,0-1.44c0.05,0.09,0.08,0.12,0.1,0.16c0.22,0.38,0.43,0.76,0.65,1.14c0.11,0.19,0.12,0.19,0.33,0.12
		c0-0.59,0-1.19,0-1.8c-0.08,0.01-0.14,0.01-0.21,0.01C120.51,66,120.51,66.45,120.51,66.91z M122.04,60.78c0,0.29,0,0.56,0,0.83
		c0.11,0.01,0.2,0.02,0.31,0.03c-0.11,0.29-0.21,0.57-0.33,0.87c0.12,0,0.2-0.01,0.28,0c0.14,0.02,0.22-0.04,0.27-0.17
		c0.07-0.17,0.14-0.34,0.23-0.49c0.21-0.34,0.11-0.7,0.12-1.06C122.62,60.78,122.33,60.78,122.04,60.78z M114.07,65.53
		c0,0.47,0,0.93,0,1.39c-0.06-0.02-0.08-0.05-0.09-0.08c-0.22-0.39-0.44-0.77-0.66-1.16c-0.1-0.17-0.1-0.17-0.33-0.14
		c0,0.6,0,1.2,0,1.82c0.08,0,0.14-0.01,0.21-0.01c0-0.49,0-0.96,0-1.46c0.05,0.08,0.09,0.14,0.12,0.2c0.22,0.38,0.43,0.76,0.65,1.13
		c0.1,0.17,0.11,0.17,0.32,0.1c0-0.59,0-1.18,0-1.79C114.21,65.53,114.15,65.53,114.07,65.53z M103.79,67.34
		c0.25,0,0.47,0.02,0.69,0c0.27-0.03,0.47-0.2,0.56-0.45c0.11-0.29,0.11-0.59,0.01-0.88c-0.06-0.19-0.19-0.32-0.38-0.41
		c-0.2-0.09-0.65-0.11-0.89-0.04C103.79,66.15,103.79,66.74,103.79,67.34z M132.55,65.53c0,0.49,0,0.95,0,1.46
		c-0.05-0.08-0.08-0.13-0.11-0.17c-0.22-0.38-0.43-0.76-0.65-1.14c-0.1-0.17-0.1-0.17-0.32-0.13c0,0.6,0,1.2,0,1.81
		c0.07,0,0.13-0.01,0.21-0.01c0-0.48,0-0.95,0-1.46c0.27,0.47,0.51,0.89,0.76,1.32c0.1,0.17,0.1,0.17,0.32,0.12c0-0.6,0-1.2,0-1.8
		C132.69,65.53,132.63,65.53,132.55,65.53z M110.97,66.44c0.06,0.19,0.09,0.39,0.17,0.57c0.12,0.26,0.35,0.38,0.63,0.39
		c0.3,0.01,0.53-0.12,0.67-0.38c0.2-0.37,0.2-0.76,0.01-1.14c-0.14-0.27-0.38-0.4-0.68-0.39c-0.3,0.01-0.53,0.14-0.65,0.4
		C111.04,66.05,111.02,66.25,110.97,66.44z M124.79,67.36c0.26,0.01,0.51,0.03,0.76-0.03c0.24-0.06,0.4-0.22,0.49-0.45
		c0.1-0.29,0.1-0.57,0.01-0.86c-0.07-0.2-0.2-0.35-0.39-0.42c-0.28-0.11-0.57-0.08-0.86-0.06
		C124.79,66.15,124.79,66.74,124.79,67.36z M137.44,65.71c-0.44-0.39-1.06-0.26-1.28,0.25c-0.14,0.32-0.14,0.65,0,0.97
		c0.2,0.45,0.79,0.61,1.19,0.34c0.05-0.03,0.11-0.09,0.11-0.14c0.01-0.23,0.01-0.47,0.01-0.72c-0.22,0-0.4,0-0.6,0
		c0,0.07,0.01,0.12,0.01,0.17c0.12,0.01,0.23,0.02,0.37,0.03c0,0.13,0,0.26,0,0.38c0,0.09-0.05,0.12-0.12,0.15
		c-0.27,0.1-0.59-0.01-0.71-0.27c-0.14-0.29-0.14-0.59,0-0.88c0.12-0.27,0.44-0.38,0.71-0.28c0.07,0.03,0.14,0.08,0.21,0.12
		C137.36,65.8,137.39,65.76,137.44,65.71z M118.94,65.71c-0.38-0.39-1.02-0.28-1.26,0.22c-0.15,0.3-0.15,0.62-0.04,0.93
		c0.17,0.49,0.75,0.7,1.19,0.43c0.06-0.04,0.13-0.11,0.14-0.17c0.02-0.23,0.01-0.46,0.01-0.7c-0.21,0-0.4,0-0.6,0
		c0,0.06,0,0.11,0,0.17c0.13,0.01,0.24,0.02,0.38,0.04c0,0.13,0,0.25,0,0.37c0,0.1-0.06,0.14-0.14,0.17
		c-0.29,0.11-0.62-0.03-0.72-0.32c-0.06-0.17-0.08-0.36-0.06-0.54c0.04-0.53,0.51-0.75,0.96-0.46c0.01,0.01,0.03,0,0.05,0.01
		C118.88,65.8,118.91,65.76,118.94,65.71z M117.45,67.35c-0.21-0.63-0.42-1.23-0.62-1.82c-0.11,0-0.19,0-0.28,0
		c-0.2,0.61-0.41,1.21-0.62,1.83c0.11-0.01,0.18-0.01,0.24-0.02c0.06-0.19,0.12-0.36,0.18-0.53c0.23,0,0.44,0,0.66,0
		c0.06,0.18,0.12,0.35,0.18,0.53C117.28,67.35,117.34,67.35,117.45,67.35z M121.24,67.35c0.36,0,0.71,0,1.06,0c0-0.06,0-0.12,0-0.2
		c-0.28,0-0.55,0-0.82,0c0-0.23,0-0.43,0-0.66c0.23,0,0.45,0,0.68,0c-0.01-0.08-0.01-0.13-0.01-0.21c-0.23,0-0.45,0-0.67,0
		c0-0.2,0-0.37,0-0.57c0.28,0,0.55,0,0.82,0c-0.01-0.08-0.02-0.13-0.03-0.18c-0.35,0-0.69,0-1.04,0
		C121.24,66.13,121.24,66.73,121.24,67.35z M130.31,65.52c-0.21,0.61-0.41,1.21-0.61,1.81c0.23,0.02,0.23,0.03,0.29-0.14
		c0.04-0.13,0.08-0.25,0.12-0.38c0.23,0,0.44,0,0.67,0c0.06,0.18,0.12,0.36,0.18,0.54c0.07,0,0.13,0,0.18,0
		c0.01,0,0.02-0.02,0.05-0.05c-0.2-0.59-0.4-1.19-0.6-1.79C130.49,65.52,130.42,65.52,130.31,65.52z M128.31,67.35
		c-0.21-0.63-0.42-1.23-0.62-1.83c-0.1,0-0.18,0-0.28,0c-0.2,0.61-0.41,1.2-0.61,1.82c0.09,0,0.16,0,0.24,0
		c0.06-0.18,0.12-0.36,0.18-0.53c0.23,0,0.45,0,0.66,0c0.06,0.18,0.12,0.36,0.18,0.54C128.15,67.35,128.21,67.35,128.31,67.35z
		 M135.04,65.52c-0.2,0.61-0.41,1.2-0.61,1.8c0.23,0.04,0.23,0.04,0.28-0.12c0.04-0.13,0.08-0.25,0.13-0.39c0.23,0,0.45,0,0.67,0
		c0.06,0.18,0.12,0.35,0.18,0.53c0.08,0,0.15,0,0.25,0c-0.21-0.62-0.41-1.22-0.61-1.82C135.23,65.52,135.15,65.52,135.04,65.52z
		 M137.92,65.52c0,0.62,0,1.22,0,1.82c0.36,0,0.71,0,1.08,0c0-0.07-0.01-0.12-0.01-0.2c-0.28,0-0.56,0-0.82,0c0-0.23,0-0.44,0-0.66
		c0.24,0,0.45,0,0.68,0c-0.01-0.08-0.01-0.13-0.02-0.2c-0.23,0-0.45,0-0.67,0c0-0.2,0-0.37,0-0.56c0.27,0,0.53,0,0.8,0
		c-0.01-0.08-0.01-0.14-0.01-0.19C138.6,65.52,138.27,65.52,137.92,65.52z M139.23,67.1c0.32,0.29,0.64,0.37,0.99,0.23
		c0.32-0.13,0.42-0.52,0.21-0.77c-0.07-0.07-0.16-0.13-0.25-0.18c-0.13-0.07-0.28-0.12-0.41-0.19c-0.14-0.07-0.19-0.17-0.18-0.28
		c0.02-0.12,0.12-0.2,0.27-0.22c0.16-0.02,0.3,0.03,0.42,0.12c0.02,0.01,0.04,0.02,0.07,0.03c0.03-0.04,0.06-0.09,0.09-0.13
		c-0.24-0.24-0.54-0.3-0.81-0.18c-0.16,0.07-0.27,0.19-0.3,0.37c-0.02,0.19,0.05,0.34,0.21,0.45c0.06,0.04,0.12,0.07,0.19,0.1
		c0.11,0.05,0.23,0.1,0.35,0.16c0.16,0.08,0.22,0.19,0.2,0.32c-0.02,0.13-0.13,0.22-0.29,0.24c-0.07,0.01-0.15,0.01-0.21-0.01
		c-0.13-0.05-0.26-0.11-0.42-0.18C139.33,67,139.29,67.04,139.23,67.1z M106.57,65.53c-0.36,0-0.69,0-1.04,0c0,0.61,0,1.21,0,1.82
		c0.36,0,0.71,0,1.08,0c-0.01-0.07-0.01-0.13-0.02-0.2c-0.28,0-0.54,0-0.81,0c0-0.23,0-0.43,0-0.67c0.23,0,0.44,0,0.65,0
		c0-0.07,0-0.12,0-0.2c-0.22,0-0.44,0-0.66,0c0-0.2,0-0.37,0-0.57c0.27,0,0.53,0,0.8,0C106.57,65.64,106.57,65.6,106.57,65.53z
		 M122.59,67.12c0.23,0.24,0.5,0.31,0.8,0.26c0.31-0.05,0.5-0.29,0.47-0.58c-0.02-0.2-0.14-0.31-0.31-0.39
		c-0.15-0.07-0.31-0.13-0.45-0.21c-0.14-0.07-0.19-0.16-0.17-0.28c0.02-0.12,0.11-0.2,0.27-0.22c0.07-0.01,0.14,0,0.21,0.02
		c0.1,0.03,0.18,0.08,0.28,0.12c0.03-0.05,0.07-0.09,0.1-0.13c-0.25-0.24-0.57-0.3-0.83-0.17c-0.34,0.17-0.38,0.6-0.07,0.81
		c0.1,0.07,0.23,0.11,0.34,0.17c0.09,0.05,0.19,0.08,0.27,0.14c0.19,0.13,0.16,0.39-0.06,0.47c-0.09,0.04-0.21,0.05-0.3,0.03
		c-0.13-0.03-0.24-0.11-0.36-0.17c-0.02-0.01-0.04-0.02-0.07-0.03C122.67,67.02,122.63,67.06,122.59,67.12z M108.07,65.71
		c-0.21-0.19-0.38-0.26-0.62-0.23c-0.25,0.02-0.45,0.18-0.49,0.39c-0.05,0.24,0.05,0.43,0.31,0.56c0.13,0.07,0.28,0.12,0.41,0.19
		c0.18,0.09,0.24,0.19,0.21,0.33c-0.03,0.14-0.14,0.24-0.32,0.24c-0.13,0-0.26-0.05-0.39-0.09c-0.06-0.02-0.12-0.07-0.19-0.12
		c-0.04,0.06-0.08,0.11-0.12,0.16c0.19,0.19,0.41,0.27,0.66,0.26c0.32-0.01,0.55-0.17,0.6-0.44c0.05-0.25-0.07-0.44-0.38-0.58
		c-0.14-0.06-0.28-0.12-0.41-0.19c-0.11-0.05-0.17-0.15-0.15-0.27c0.02-0.13,0.11-0.18,0.23-0.21c0.18-0.04,0.33,0.02,0.47,0.12
		c0.02,0.01,0.04,0.01,0.07,0.02C108,65.8,108.03,65.76,108.07,65.71z M128.28,65.53c0.2,0.62,0.39,1.22,0.58,1.82
		c0.1,0,0.19,0,0.29,0c0.18-0.61,0.4-1.2,0.57-1.84c-0.1,0.01-0.17,0.01-0.24,0.02c-0.15,0.52-0.3,1.02-0.45,1.52
		c-0.01,0-0.03,0-0.04,0c-0.15-0.51-0.3-1.01-0.45-1.52C128.45,65.53,128.38,65.53,128.28,65.53z M115.96,65.53
		c-0.46,0-0.89,0-1.33,0c0,0.07,0,0.12,0,0.19c0.18,0,0.35,0,0.55,0c0,0.55,0,1.08,0,1.62c0.09,0,0.15,0,0.24,0
		c0-0.54,0-1.07,0-1.62c0.19,0,0.36,0,0.55,0C115.96,65.64,115.96,65.59,115.96,65.53z M134.45,65.51c-0.47,0-0.9-0.01-1.36,0.01
		c0.01,0.09,0.02,0.14,0.03,0.21c0.18,0,0.35,0,0.54,0c0,0.55,0,1.08,0,1.63c0.09-0.01,0.15-0.02,0.24-0.03c0-0.55,0-1.08,0-1.63
		c0.2,0,0.37,0,0.54,0C134.45,65.64,134.45,65.59,134.45,65.51z M126.5,66.14c0.13-0.05,0.23-0.14,0.26-0.27
		c0.03-0.12,0.03-0.25,0.01-0.37c0-0.04-0.09-0.1-0.14-0.1c-0.05,0-0.12,0.05-0.14,0.09c-0.02,0.04,0.02,0.12,0.05,0.17
		c0.02,0.04,0.07,0.05,0.12,0.09c-0.04,0.07-0.07,0.14-0.11,0.19C126.51,66,126.41,66.02,126.5,66.14z"/>
	<path d="M122.33,56.89c2.21-4.33,4.41-8.62,6.61-12.93c0.44,0.23,0.87,0.44,1.32,0.67c-0.03,0.07-0.05,0.14-0.09,0.2
		c-1.86,3.63-3.71,7.27-5.57,10.9c-0.37,0.73-0.74,1.46-1.12,2.19c-0.05,0.09-0.07,0.19-0.13,0.28c-0.1,0.17-0.2,0.35-0.33,0.49
		c-0.39,0.4-0.96,0.41-1.38,0.05c-0.23-0.19-0.37-0.45-0.48-0.73c-0.41-1.02-0.82-2.03-1.24-3.05c-2.26-5.57-4.52-11.14-6.79-16.7
		c-0.03-0.07-0.06-0.14-0.11-0.26c-2.68,5.12-5.34,10.21-8.03,15.35c0.89,0,1.72,0,2.56,0c0.85,0,1.7,0,2.55,0c0.84,0,1.68,0,2.53,0
		c0.85,0,1.7,0,2.55,0c0.84,0,1.68,0,2.53,0c0,0.5,0,0.98,0,1.48c-0.09,0-0.18,0.01-0.27,0.01c-2.18,0-4.35,0-6.53,0
		c-2.07,0-4.13,0-6.2,0c-0.13,0-0.26,0-0.38-0.02c-0.82-0.15-1.24-0.99-0.88-1.73c0.1-0.21,0.22-0.42,0.33-0.63
		c2.71-5.19,5.43-10.37,8.14-15.56c0.08-0.15,0.16-0.3,0.26-0.42c0.52-0.66,1.39-0.61,1.84,0.1c0.08,0.13,0.15,0.28,0.21,0.43
		c1.95,4.79,3.89,9.58,5.84,14.36c0.72,1.77,1.43,3.53,2.15,5.3C122.25,56.72,122.28,56.79,122.33,56.89z"/>
	<path d="M127.78,29.72c-2.35,4.53-4.67,9.02-7.01,13.53c-0.44-0.23-0.87-0.45-1.31-0.68c0.03-0.07,0.06-0.14,0.09-0.2
		c2.38-4.6,4.77-9.19,7.15-13.79c0.1-0.2,0.22-0.38,0.4-0.53c0.43-0.35,1.03-0.35,1.43,0.04c0.15,0.15,0.28,0.33,0.37,0.52
		c0.92,1.83,1.82,3.67,2.73,5.51c2.97,5.99,5.94,11.98,8.91,17.97c0.16,0.32,0.32,0.64,0.48,0.96c0.14,0.28,0.19,0.57,0.13,0.88
		c-0.12,0.52-0.52,0.85-1.09,0.91c-0.09,0.01-0.17,0.01-0.26,0.01c-3.9,0-7.8,0-11.71,0c-0.08,0-0.16,0-0.27,0
		c-0.01-0.49,0-0.97,0-1.48c0.36,0,0.7,0,1.05,0c0.36,0,0.72,0,1.07,0c0.35,0,0.7,0,1.05,0c0.36,0,0.72,0,1.07,0
		c0.35,0,0.7,0,1.05,0c0.36,0,0.72,0,1.07,0c0.35,0,0.7,0,1.05,0c0.36,0,0.72,0,1.07,0c0.35,0,0.7,0,1.05,0c0.36,0,0.72,0,1.07,0
		c0.35,0,0.69,0,1.09,0C135.58,45.46,131.69,37.61,127.78,29.72z"/>
	<path d="M114.65,60.77c0.29,0,0.56-0.01,0.84,0.01c0.06,0,0.14,0.07,0.19,0.12c0.36,0.42,0.72,0.84,1.08,1.27
		c0.05,0.06,0.1,0.12,0.2,0.22c0.01-0.31,0-0.57,0.01-0.82c0-0.25,0-0.51,0-0.78c0.33,0,0.64,0,0.97,0c0,1.1,0,2.19,0,3.31
		c-0.29,0-0.57,0.01-0.85-0.01c-0.06,0-0.14-0.07-0.18-0.13c-0.35-0.4-0.7-0.8-1.05-1.21c-0.06-0.06-0.11-0.12-0.2-0.21
		c-0.06,0.28-0.02,0.53-0.03,0.78c-0.01,0.25,0,0.5,0,0.77c-0.34,0-0.64,0-0.97,0C114.65,62.99,114.65,61.89,114.65,60.77z"/>
	<path d="M136.85,61.58c-0.6,0-1.18,0-1.78,0c0,0.15,0,0.29,0,0.45c0.5,0,1,0,1.51,0c0,0.27,0,0.51,0,0.77c-0.51,0-1.01,0-1.52,0
		c0,0.17,0,0.32,0,0.49c0.61,0,1.21,0,1.82,0c0,0.28,0,0.53,0,0.79c-0.97,0-1.92,0-2.89,0c0-1.11,0-2.2,0-3.31c0.96,0,1.9,0,2.85,0
		C136.85,61.04,136.85,61.29,136.85,61.58z"/>
	<path d="M140.33,61.79c-0.33,0-0.65,0-0.96,0c-0.13-0.32-0.41-0.44-0.73-0.31c-0.08,0.03-0.18,0.08-0.15,0.18
		c0.01,0.07,0.08,0.15,0.14,0.17c0.19,0.07,0.38,0.11,0.57,0.16c0.19,0.05,0.39,0.09,0.57,0.15c0.36,0.13,0.63,0.35,0.66,0.76
		c0.03,0.44-0.1,0.82-0.52,1.04c-0.14,0.07-0.29,0.13-0.45,0.16c-0.52,0.09-1.03,0.07-1.52-0.11c-0.44-0.17-0.66-0.59-0.6-1.01
		c0.32,0,0.64,0,0.97,0c0.01,0.04,0.02,0.07,0.03,0.11c0.03,0.16,0.13,0.26,0.29,0.27c0.16,0.02,0.33,0.01,0.5,0
		c0.09-0.01,0.19-0.05,0.2-0.17c0.01-0.12-0.07-0.18-0.16-0.2c-0.16-0.05-0.32-0.09-0.48-0.13c-0.22-0.06-0.45-0.11-0.66-0.19
		c-0.47-0.17-0.67-0.49-0.64-0.99c0.02-0.33,0.17-0.57,0.46-0.73c0.43-0.24,0.89-0.27,1.36-0.22c0.26,0.03,0.51,0.1,0.74,0.25
		C140.22,61.17,140.34,61.42,140.33,61.79z"/>
	<path d="M111.77,60.78c0.42,0,0.83,0,1.25,0c0.4,1.1,0.8,2.19,1.21,3.31c-0.39,0-0.76,0-1.13,0c-0.05-0.14-0.1-0.28-0.15-0.44
		c-0.38,0-0.76,0-1.15,0c-0.05,0.14-0.09,0.28-0.15,0.43c-0.35,0-0.7,0-1.09,0C110.97,62.97,111.37,61.88,111.77,60.78z
		 M112.73,62.87c-0.11-0.39-0.22-0.75-0.33-1.12c-0.14,0.37-0.28,0.73-0.36,1.12C112.28,62.87,112.49,62.87,112.73,62.87z"/>
	<path d="M104.78,60.78c0.42,0,0.82,0,1.25,0c0.4,1.09,0.8,2.19,1.21,3.31c-0.39,0-0.75,0-1.13,0c-0.05-0.15-0.1-0.29-0.15-0.44
		c-0.39,0-0.76,0-1.15,0c-0.05,0.15-0.1,0.3-0.15,0.45c-0.36,0-0.71,0-1.09,0C103.98,62.98,104.38,61.88,104.78,60.78z
		 M105.42,61.78c-0.02,0-0.04,0-0.05,0.01c-0.06,0.18-0.11,0.36-0.17,0.54c-0.05,0.18-0.1,0.36-0.16,0.55c0.24,0,0.45,0,0.7,0
		C105.63,62.5,105.53,62.14,105.42,61.78z"/>
	<path d="M126.86,64.09c-0.39,0-0.75,0-1.13,0c-0.05-0.14-0.09-0.28-0.14-0.44c-0.38,0-0.76,0-1.15,0c-0.05,0.14-0.1,0.29-0.15,0.44
		c-0.36,0-0.7,0-1.09,0c0.41-1.11,0.81-2.21,1.21-3.31c0.42,0,0.82,0,1.25,0C126.05,61.87,126.45,62.97,126.86,64.09z M125.03,61.76
		c-0.01,0-0.03,0-0.04,0c-0.11,0.37-0.22,0.73-0.33,1.12c0.25,0,0.46,0,0.7,0C125.24,62.49,125.14,62.12,125.03,61.76z"/>
	<path d="M130.5,60.79c0.69,0,1.36-0.03,2.03,0.01c0.46,0.03,0.75,0.35,0.86,0.8c0.06,0.25,0.05,0.49-0.03,0.73
		c-0.14,0.43-0.51,0.69-1,0.71c-0.25,0.01-0.51,0-0.79,0c0,0.35,0,0.69,0,1.06c-0.37,0.02-0.71,0.01-1.07,0.01
		C130.5,62.99,130.5,61.89,130.5,60.79z M131.57,62.24c0.18,0,0.33,0.01,0.49,0c0.18-0.02,0.27-0.13,0.27-0.33
		c0-0.2-0.08-0.32-0.26-0.33c-0.16-0.01-0.33,0-0.5,0C131.57,61.8,131.57,62,131.57,62.24z"/>
	<path d="M109.53,64.09c-0.43,0-0.83,0-1.25,0c-0.39-1.1-0.78-2.19-1.17-3.31c0.39,0,0.75,0,1.14,0c0.22,0.71,0.43,1.43,0.65,2.15
		c0.02,0,0.03,0,0.05-0.01c0.22-0.72,0.44-1.43,0.65-2.15c0.36,0,0.71,0,1.1,0C110.31,61.89,109.92,62.98,109.53,64.09z"/>
	<path d="M118.42,60.78c1.09,0,2.15,0,3.22,0c0,0.28,0,0.54,0,0.84c-0.34,0-0.69,0-1.06,0c0,0.84,0,1.64,0,2.46
		c-0.37,0-0.71,0-1.08,0c0-0.81,0-1.61,0-2.45c-0.37,0-0.72,0-1.09,0C118.42,61.33,118.42,61.07,118.42,60.78z"/>
	<path d="M127.28,64.08c0-1.11,0-2.2,0-3.3c0.35,0,0.69,0,1.05,0c0,0.82,0,1.62,0,2.46c0.57,0.01,1.13,0,1.71,0.01
		c0.01,0.28,0.01,0.54,0,0.81C129.86,64.11,127.82,64.13,127.28,64.08z"/>
	<path d="M110.59,65.53c0,0.61,0,1.2,0,1.81c-0.06,0-0.12,0.01-0.2,0.01c0-0.47,0-0.92,0-1.43c-0.05,0.09-0.08,0.13-0.09,0.18
		c-0.11,0.31-0.22,0.61-0.33,0.92c-0.03,0.07-0.04,0.18-0.14,0.15c-0.05-0.01-0.1-0.09-0.13-0.15c-0.12-0.32-0.23-0.64-0.35-0.96
		c-0.01-0.04-0.03-0.07-0.08-0.15c0,0.51,0,0.96,0,1.43c-0.07,0-0.13,0-0.2,0c0-0.61,0-1.2,0-1.82c0.09,0,0.17-0.01,0.27-0.01
		c0.16,0.44,0.32,0.88,0.49,1.35c0.17-0.47,0.32-0.9,0.47-1.34C110.4,65.53,110.48,65.53,110.59,65.53z"/>
	<path d="M120.51,66.91c0-0.45,0-0.9,0-1.37c0.07,0,0.13-0.01,0.21-0.01c0,0.61,0,1.21,0,1.8c-0.21,0.07-0.22,0.07-0.33-0.12
		c-0.22-0.38-0.43-0.76-0.65-1.14c-0.02-0.04-0.05-0.08-0.1-0.16c0,0.51,0,0.96,0,1.44c-0.08,0.01-0.14,0.01-0.22,0.01
		c0-0.62,0-1.22,0-1.82c0.23-0.04,0.23-0.04,0.33,0.13c0.22,0.38,0.43,0.76,0.65,1.14c0.02,0.04,0.05,0.08,0.07,0.11
		C120.48,66.92,120.5,66.91,120.51,66.91z"/>
	<path d="M122.04,60.78c0.29,0,0.57,0,0.88,0c-0.01,0.36,0.08,0.72-0.12,1.06c-0.09,0.16-0.17,0.32-0.23,0.49
		c-0.05,0.13-0.13,0.19-0.27,0.17c-0.08-0.01-0.16,0-0.28,0c0.11-0.3,0.22-0.58,0.33-0.87c-0.11-0.01-0.2-0.02-0.31-0.03
		C122.04,61.34,122.04,61.07,122.04,60.78z"/>
	<path d="M114.07,65.53c0.08,0,0.14,0,0.21,0c0,0.61,0,1.2,0,1.79c-0.21,0.07-0.22,0.07-0.32-0.1c-0.22-0.38-0.43-0.76-0.65-1.13
		c-0.03-0.06-0.07-0.12-0.12-0.2c0,0.5,0,0.97,0,1.46c-0.06,0-0.13,0.01-0.21,0.01c0-0.62,0-1.22,0-1.82
		c0.23-0.03,0.23-0.03,0.33,0.14c0.22,0.39,0.44,0.77,0.66,1.16c0.02,0.03,0.04,0.06,0.09,0.08C114.07,66.46,114.07,66,114.07,65.53
		z"/>
	<path d="M103.79,67.34c0-0.6,0-1.2,0-1.78c0.24-0.07,0.69-0.05,0.89,0.04c0.18,0.08,0.31,0.22,0.38,0.41
		c0.1,0.29,0.1,0.59-0.01,0.88c-0.1,0.26-0.29,0.42-0.56,0.45C104.26,67.36,104.04,67.34,103.79,67.34z M104.04,67.15
		c0.59,0.04,0.83-0.18,0.83-0.73c0-0.02,0-0.03,0-0.05c-0.01-0.5-0.32-0.73-0.83-0.63C104.04,66.21,104.04,66.67,104.04,67.15z"/>
	<path d="M132.55,65.53c0.08,0,0.13,0,0.2,0c0,0.6,0,1.2,0,1.8c-0.21,0.05-0.22,0.06-0.32-0.12c-0.25-0.43-0.49-0.85-0.76-1.32
		c0,0.51,0,0.98,0,1.46c-0.08,0-0.13,0.01-0.21,0.01c0-0.61,0-1.21,0-1.81c0.22-0.04,0.22-0.04,0.32,0.13
		c0.22,0.38,0.43,0.76,0.65,1.14c0.03,0.05,0.06,0.09,0.11,0.17C132.55,66.48,132.55,66.01,132.55,65.53z"/>
	<path d="M110.97,66.44c0.05-0.19,0.08-0.39,0.16-0.55c0.12-0.27,0.35-0.4,0.65-0.4c0.31-0.01,0.54,0.12,0.68,0.39
		c0.19,0.38,0.18,0.77-0.01,1.14c-0.14,0.26-0.37,0.38-0.67,0.38c-0.29,0-0.51-0.13-0.63-0.39
		C111.05,66.83,111.02,66.63,110.97,66.44z M111.21,66.44c0.05,0.17,0.08,0.34,0.16,0.49c0.19,0.34,0.64,0.34,0.83,0
		c0.18-0.32,0.17-0.65,0.01-0.98c-0.08-0.17-0.23-0.26-0.42-0.26c-0.2,0-0.36,0.08-0.44,0.27
		C111.29,66.11,111.26,66.27,111.21,66.44z"/>
	<path d="M124.79,67.36c0-0.62,0-1.21,0-1.83c0.29-0.01,0.58-0.04,0.86,0.06c0.19,0.08,0.33,0.22,0.39,0.42
		c0.1,0.29,0.1,0.58-0.01,0.86c-0.08,0.23-0.25,0.39-0.49,0.45C125.31,67.39,125.06,67.36,124.79,67.36z M125.03,67.15
		c0.13,0,0.23,0.01,0.34,0c0.2-0.03,0.35-0.14,0.43-0.33c0.09-0.24,0.09-0.5,0.01-0.74c-0.06-0.17-0.18-0.29-0.35-0.33
		c-0.13-0.03-0.28-0.03-0.42-0.04C125.03,66.21,125.03,66.67,125.03,67.15z"/>
	<path d="M137.44,65.71c-0.05,0.05-0.08,0.1-0.12,0.14c-0.08-0.04-0.14-0.09-0.21-0.12c-0.27-0.11-0.58,0.01-0.71,0.28
		c-0.13,0.29-0.13,0.59,0,0.88c0.12,0.26,0.44,0.37,0.71,0.27c0.07-0.03,0.13-0.06,0.12-0.15c0-0.13,0-0.25,0-0.38
		c-0.13-0.01-0.24-0.02-0.37-0.03c0-0.06-0.01-0.11-0.01-0.17c0.2,0,0.39,0,0.6,0c0,0.25,0.01,0.48-0.01,0.72
		c0,0.05-0.06,0.11-0.11,0.14c-0.41,0.27-1,0.11-1.19-0.34c-0.14-0.32-0.14-0.65,0-0.97C136.38,65.45,137,65.32,137.44,65.71z"/>
	<path d="M118.94,65.71c-0.03,0.04-0.06,0.08-0.09,0.12c-0.03,0-0.04,0-0.05-0.01c-0.45-0.29-0.92-0.07-0.96,0.46
		c-0.01,0.18,0.01,0.37,0.06,0.54c0.1,0.3,0.43,0.43,0.72,0.32c0.08-0.03,0.14-0.07,0.14-0.17c0-0.12,0-0.23,0-0.37
		c-0.14-0.01-0.25-0.02-0.38-0.04c0-0.06,0-0.11,0-0.17c0.2,0,0.39,0,0.6,0c0,0.24,0.01,0.47-0.01,0.7c0,0.06-0.08,0.14-0.14,0.17
		c-0.44,0.27-1.03,0.06-1.19-0.43c-0.11-0.31-0.11-0.63,0.04-0.93C117.92,65.44,118.56,65.32,118.94,65.71z"/>
	<path d="M117.45,67.35c-0.11,0-0.18,0-0.25,0c-0.06-0.18-0.12-0.35-0.18-0.53c-0.22,0-0.44,0-0.66,0
		c-0.06,0.17-0.12,0.34-0.18,0.53c-0.07,0-0.13,0.01-0.24,0.02c0.21-0.63,0.41-1.23,0.62-1.83c0.09,0,0.17,0,0.28,0
		C117.04,66.12,117.24,66.72,117.45,67.35z M116.95,66.59c-0.08-0.28-0.16-0.53-0.24-0.79c-0.02,0-0.03,0-0.05,0
		c-0.08,0.26-0.16,0.51-0.24,0.79C116.61,66.59,116.77,66.59,116.95,66.59z"/>
	<path d="M121.24,67.35c0-0.62,0-1.22,0-1.82c0.35,0,0.69,0,1.04,0c0.01,0.05,0.01,0.1,0.03,0.18c-0.28,0-0.54,0-0.82,0
		c0,0.2,0,0.37,0,0.57c0.22,0,0.43,0,0.67,0c0.01,0.08,0.01,0.13,0.01,0.21c-0.23,0-0.45,0-0.68,0c0,0.23,0,0.43,0,0.66
		c0.27,0,0.53,0,0.82,0c0,0.08,0,0.14,0,0.2C121.95,67.35,121.6,67.35,121.24,67.35z"/>
	<path d="M130.31,65.52c0.1,0,0.18,0,0.28,0c0.2,0.6,0.41,1.2,0.6,1.79c-0.03,0.03-0.04,0.04-0.05,0.05c-0.05,0-0.11,0-0.18,0
		c-0.06-0.18-0.12-0.36-0.18-0.54c-0.22,0-0.43,0-0.67,0c-0.04,0.13-0.08,0.25-0.12,0.38c-0.06,0.16-0.06,0.16-0.29,0.14
		C129.91,66.73,130.11,66.14,130.31,65.52z M130.72,66.6c-0.09-0.29-0.17-0.55-0.27-0.87c-0.1,0.32-0.18,0.58-0.26,0.87
		C130.37,66.6,130.52,66.6,130.72,66.6z"/>
	<path d="M128.31,67.35c-0.1,0-0.17,0-0.25,0c-0.06-0.17-0.12-0.35-0.18-0.54c-0.22,0-0.43,0-0.66,0c-0.06,0.17-0.12,0.35-0.18,0.53
		c-0.08,0-0.15,0-0.24,0c0.21-0.62,0.41-1.22,0.61-1.82c0.09,0,0.18,0,0.28,0C127.9,66.13,128.1,66.72,128.31,67.35z M127.82,66.6
		c-0.09-0.29-0.17-0.55-0.25-0.81c-0.01,0-0.03,0-0.04,0.01c-0.08,0.26-0.16,0.52-0.24,0.8C127.47,66.6,127.63,66.6,127.82,66.6z"/>
	<path d="M135.04,65.52c0.11,0,0.19,0,0.28,0c0.2,0.6,0.41,1.2,0.61,1.82c-0.1,0-0.17,0-0.25,0c-0.06-0.17-0.12-0.34-0.18-0.53
		c-0.22,0-0.44,0-0.67,0c-0.04,0.13-0.08,0.26-0.13,0.39c-0.06,0.16-0.06,0.16-0.28,0.12C134.64,66.73,134.84,66.13,135.04,65.52z
		 M135.45,66.59c-0.09-0.29-0.17-0.55-0.25-0.81c-0.01,0-0.03,0-0.04,0c-0.08,0.26-0.16,0.52-0.24,0.8
		C135.1,66.59,135.25,66.59,135.45,66.59z"/>
	<path d="M137.92,65.52c0.35,0,0.68,0,1.03,0c0,0.06,0.01,0.11,0.01,0.19c-0.28,0-0.53,0-0.8,0c0,0.19,0,0.37,0,0.56
		c0.22,0,0.44,0,0.67,0c0.01,0.07,0.01,0.12,0.02,0.2c-0.23,0-0.45,0-0.68,0c0,0.23,0,0.43,0,0.66c0.26,0,0.54,0,0.82,0
		c0.01,0.08,0.01,0.13,0.01,0.2c-0.37,0-0.72,0-1.08,0C137.92,66.74,137.92,66.15,137.92,65.52z"/>
	<path d="M139.23,67.1c0.06-0.06,0.11-0.1,0.13-0.12c0.17,0.07,0.29,0.14,0.42,0.18c0.06,0.02,0.14,0.02,0.21,0.01
		c0.17-0.02,0.27-0.11,0.29-0.24c0.02-0.13-0.04-0.24-0.2-0.32c-0.11-0.06-0.23-0.1-0.35-0.16c-0.06-0.03-0.13-0.06-0.19-0.1
		c-0.16-0.11-0.23-0.26-0.21-0.45c0.02-0.18,0.13-0.3,0.3-0.37c0.27-0.12,0.57-0.06,0.81,0.18c-0.03,0.04-0.06,0.08-0.09,0.13
		c-0.03-0.01-0.05-0.01-0.07-0.03c-0.13-0.09-0.27-0.14-0.42-0.12c-0.16,0.02-0.26,0.1-0.27,0.22c-0.02,0.11,0.03,0.21,0.18,0.28
		c0.13,0.07,0.28,0.12,0.41,0.19c0.09,0.05,0.18,0.1,0.25,0.18c0.21,0.25,0.11,0.64-0.21,0.77
		C139.87,67.47,139.55,67.39,139.23,67.1z"/>
	<path d="M106.57,65.53c0,0.07,0,0.12,0,0.19c-0.27,0-0.52,0-0.8,0c0,0.2,0,0.38,0,0.57c0.22,0,0.43,0,0.66,0c0,0.07,0,0.12,0,0.2
		c-0.21,0-0.42,0-0.65,0c0,0.23,0,0.44,0,0.67c0.27,0,0.53,0,0.81,0c0.01,0.07,0.01,0.13,0.02,0.2c-0.37,0-0.71,0-1.08,0
		c0-0.61,0-1.21,0-1.82C105.88,65.53,106.22,65.53,106.57,65.53z"/>
	<path d="M122.59,67.12c0.05-0.06,0.08-0.1,0.12-0.14c0.03,0.01,0.05,0.02,0.07,0.03c0.12,0.06,0.24,0.14,0.36,0.17
		c0.09,0.02,0.21,0.01,0.3-0.03c0.21-0.08,0.24-0.34,0.06-0.47c-0.08-0.06-0.18-0.09-0.27-0.14c-0.11-0.06-0.24-0.1-0.34-0.17
		c-0.31-0.22-0.27-0.65,0.07-0.81c0.27-0.13,0.58-0.07,0.83,0.17c-0.03,0.04-0.06,0.08-0.1,0.13c-0.1-0.04-0.19-0.09-0.28-0.12
		c-0.07-0.02-0.14-0.02-0.21-0.02c-0.16,0.01-0.25,0.1-0.27,0.22c-0.02,0.12,0.03,0.21,0.17,0.28c0.15,0.08,0.3,0.13,0.45,0.21
		c0.16,0.08,0.29,0.2,0.31,0.39c0.03,0.3-0.16,0.54-0.47,0.58C123.09,67.43,122.82,67.36,122.59,67.12z"/>
	<path d="M108.07,65.71c-0.04,0.05-0.07,0.09-0.1,0.12c-0.02-0.01-0.05-0.01-0.07-0.02c-0.14-0.1-0.29-0.15-0.47-0.12
		c-0.12,0.02-0.21,0.08-0.23,0.21c-0.02,0.13,0.04,0.22,0.15,0.27c0.13,0.07,0.27,0.13,0.41,0.19c0.3,0.14,0.43,0.33,0.38,0.58
		c-0.05,0.26-0.28,0.43-0.6,0.44c-0.25,0.01-0.47-0.07-0.66-0.26c0.04-0.05,0.08-0.1,0.12-0.16c0.07,0.05,0.13,0.1,0.19,0.12
		c0.13,0.04,0.26,0.09,0.39,0.09c0.18,0,0.29-0.1,0.32-0.24c0.03-0.14-0.03-0.24-0.21-0.33c-0.13-0.07-0.28-0.12-0.41-0.19
		c-0.25-0.13-0.36-0.32-0.31-0.56c0.04-0.2,0.24-0.36,0.49-0.39C107.69,65.46,107.86,65.52,108.07,65.71z"/>
	<path d="M128.28,65.53c0.09,0,0.16,0,0.25,0c0.15,0.5,0.3,1.01,0.45,1.52c0.01,0,0.03,0,0.04,0c0.15-0.5,0.3-1,0.45-1.52
		c0.07,0,0.13-0.01,0.24-0.02c-0.17,0.63-0.39,1.23-0.57,1.84c-0.1,0-0.18,0-0.29,0C128.67,66.75,128.48,66.15,128.28,65.53z"/>
	<path d="M115.96,65.53c0,0.07,0,0.12,0,0.19c-0.18,0-0.35,0-0.55,0c0,0.55,0,1.08,0,1.62c-0.09,0-0.15,0-0.24,0
		c0-0.54,0-1.07,0-1.62c-0.19,0-0.36,0-0.55,0c0-0.07,0-0.13,0-0.19C115.06,65.53,115.5,65.53,115.96,65.53z"/>
	<path d="M134.45,65.51c0,0.08,0,0.12,0,0.19c-0.17,0-0.34,0-0.54,0c0,0.55,0,1.08,0,1.63c-0.09,0.01-0.15,0.02-0.24,0.03
		c0-0.55,0-1.08,0-1.63c-0.19,0-0.36,0-0.54,0c-0.01-0.07-0.02-0.12-0.03-0.21C133.55,65.5,133.99,65.52,134.45,65.51z"/>
	<path d="M126.5,66.14c-0.08-0.11,0.01-0.14,0.05-0.2c0.04-0.06,0.07-0.12,0.11-0.19c-0.05-0.03-0.1-0.05-0.12-0.09
		c-0.03-0.05-0.06-0.12-0.05-0.17c0.02-0.05,0.09-0.1,0.14-0.09c0.05,0,0.13,0.06,0.14,0.1c0.01,0.12,0.01,0.25-0.01,0.37
		C126.72,66,126.63,66.09,126.5,66.14z"/>
	<path class="st0" d="M112.73,62.87c-0.24,0-0.45,0-0.69,0c0.08-0.38,0.22-0.74,0.36-1.12C112.51,62.12,112.61,62.49,112.73,62.87z"
		/>
	<path class="st0" d="M105.42,61.78c0.11,0.36,0.21,0.72,0.32,1.1c-0.25,0-0.46,0-0.7,0c0.05-0.19,0.1-0.37,0.16-0.55
		c0.05-0.18,0.11-0.36,0.17-0.54C105.38,61.78,105.4,61.78,105.42,61.78z"/>
	<path class="st0" d="M125.03,61.76c0.11,0.37,0.21,0.73,0.33,1.12c-0.25,0-0.46,0-0.7,0c0.11-0.38,0.22-0.75,0.33-1.12
		C125,61.76,125.01,61.76,125.03,61.76z"/>
	<path class="st0" d="M131.57,62.24c0-0.24,0-0.44,0-0.67c0.17,0,0.34-0.01,0.5,0c0.18,0.02,0.26,0.14,0.26,0.33
		c0,0.2-0.09,0.31-0.27,0.33C131.91,62.25,131.75,62.24,131.57,62.24z"/>
	<path class="st0" d="M104.04,67.15c0-0.48,0-0.94,0-1.4c0.51-0.11,0.81,0.12,0.83,0.63c0,0.02,0,0.03,0,0.05
		C104.88,66.97,104.63,67.19,104.04,67.15z"/>
	<path class="st0" d="M111.21,66.44c0.05-0.17,0.08-0.34,0.14-0.49c0.08-0.18,0.24-0.27,0.44-0.27c0.19,0,0.34,0.09,0.42,0.26
		c0.16,0.33,0.16,0.66-0.01,0.98c-0.19,0.34-0.64,0.34-0.83,0C111.29,66.79,111.27,66.61,111.21,66.44z"/>
	<path class="st0" d="M125.03,67.15c0-0.48,0-0.94,0-1.44c0.15,0.01,0.29,0.01,0.42,0.04c0.17,0.04,0.29,0.16,0.35,0.33
		c0.08,0.25,0.09,0.5-0.01,0.74c-0.07,0.19-0.22,0.31-0.43,0.33C125.27,67.16,125.16,67.15,125.03,67.15z"/>
	<path class="st0" d="M116.95,66.59c-0.19,0-0.34,0-0.53,0c0.08-0.28,0.16-0.53,0.24-0.79c0.02,0,0.03,0,0.05,0
		C116.79,66.06,116.87,66.32,116.95,66.59z"/>
	<path class="st0" d="M130.72,66.6c-0.19,0-0.35,0-0.53,0c0.09-0.28,0.17-0.54,0.26-0.87C130.55,66.05,130.63,66.31,130.72,66.6z"/>
	<path class="st0" d="M127.82,66.6c-0.19,0-0.35,0-0.53,0c0.08-0.28,0.16-0.54,0.24-0.8c0.01,0,0.03,0,0.04-0.01
		C127.65,66.05,127.73,66.3,127.82,66.6z"/>
	<path class="st0" d="M135.45,66.59c-0.19,0-0.35,0-0.53,0c0.08-0.28,0.16-0.54,0.24-0.8c0.01,0,0.03,0,0.04,0
		C135.28,66.05,135.36,66.31,135.45,66.59z"/>
</g>
</svg>
