<?xml version="1.0" encoding="utf-8"?>
<!-- Generator: Adobe Illustrator 27.0.1, SVG Export Plug-In . SVG Version: 6.00 Build 0)  -->
<svg version="1.1" xmlns="http://www.w3.org/2000/svg" xmlns:xlink="http://www.w3.org/1999/xlink" x="0px" y="0px"
	 viewBox="0 0 32 32" style="enable-background:new 0 0 32 32;" xml:space="preserve">
<style type="text/css">
	.st0{fill:#FFFFFF;}
</style>
<g id="Calque_2">
</g>
<g id="Calque_1">
	<path d="M15.66,30.48c-0.15-0.01-0.3-0.03-0.45-0.04c-0.63-0.04-1.25-0.11-1.86-0.23c-1.32-0.25-2.59-0.68-3.79-1.29
		c-1.33-0.67-2.53-1.51-3.6-2.55c-1.71-1.65-2.96-3.6-3.73-5.85c-0.31-0.9-0.52-1.82-0.65-2.76c-0.07-0.49-0.1-0.97-0.13-1.46
		c-0.03-0.57-0.01-1.13,0.04-1.69c0.12-1.49,0.44-2.93,1.01-4.32C3.9,6.88,6.26,4.32,9.55,2.64C10.79,2,12.1,1.58,13.47,1.33
		c0.95-0.17,1.91-0.25,2.88-0.23c0.58,0.01,1.15,0.05,1.72,0.12c1.36,0.18,2.67,0.54,3.93,1.09c4.08,1.78,7.15,5.34,8.31,9.64
		c0.2,0.72,0.34,1.46,0.41,2.21c0.03,0.32,0.05,0.65,0.07,0.98c0,0.05,0.01,0.1,0.02,0.15c0,0.33,0,0.65,0,0.98
		c-0.01,0.04-0.02,0.09-0.02,0.13c-0.01,0.61-0.08,1.21-0.18,1.81c-0.17,1.05-0.46,2.07-0.86,3.06c-1.26,3.06-3.3,5.44-6.13,7.14
		c-2.03,1.22-4.23,1.88-6.59,2.03c-0.13,0.01-0.26,0.03-0.38,0.04C16.32,30.48,15.99,30.48,15.66,30.48z M2.13,15.78
		c0,7.73,6.26,13.95,13.93,13.99c7.71,0.04,14.03-6.19,14.06-13.93c0.03-7.78-6.25-14.01-13.92-14.06
		C8.47,1.74,2.13,8.01,2.13,15.78z"/>
	<path class="st0" d="M2.13,15.78c0-7.78,6.33-14.04,14.07-14c7.66,0.04,13.95,6.28,13.92,14.06c-0.03,7.74-6.35,13.97-14.06,13.93
		C8.4,29.74,2.14,23.51,2.13,15.78z"/>
	<path d="M15.81,21.76c1.03-2.02,2.06-4.03,3.09-6.04c0.21,0.11,0.41,0.21,0.62,0.31c-0.01,0.03-0.03,0.06-0.04,0.09
		c-0.87,1.7-1.74,3.4-2.6,5.09c-0.17,0.34-0.35,0.68-0.52,1.02c-0.02,0.04-0.03,0.09-0.06,0.13c-0.05,0.08-0.09,0.16-0.15,0.23
		c-0.18,0.18-0.45,0.19-0.64,0.03c-0.11-0.09-0.17-0.21-0.23-0.34c-0.19-0.47-0.39-0.95-0.58-1.42c-1.06-2.6-2.11-5.2-3.17-7.8
		c-0.01-0.03-0.03-0.07-0.05-0.12c-1.25,2.39-2.5,4.77-3.75,7.17c0.41,0,0.8,0,1.2,0c0.4,0,0.79,0,1.19,0c0.39,0,0.79,0,1.18,0
		c0.4,0,0.79,0,1.19,0c0.39,0,0.78,0,1.18,0c0,0.23,0,0.46,0,0.69c-0.04,0-0.09,0-0.13,0c-1.02,0-2.03,0-3.05,0
		c-0.97,0-1.93,0-2.9,0c-0.06,0-0.12,0-0.18-0.01c-0.38-0.07-0.58-0.46-0.41-0.81c0.05-0.1,0.1-0.2,0.15-0.3
		c1.27-2.42,2.53-4.84,3.8-7.27c0.04-0.07,0.07-0.14,0.12-0.2c0.24-0.31,0.65-0.29,0.86,0.05c0.04,0.06,0.07,0.13,0.1,0.2
		c0.91,2.24,1.82,4.47,2.73,6.71c0.33,0.82,0.67,1.65,1,2.47C15.77,21.68,15.78,21.71,15.81,21.76z"/>
	<path d="M18.35,9.07c-1.1,2.12-2.18,4.21-3.28,6.32c-0.21-0.11-0.41-0.21-0.61-0.32c0.02-0.03,0.03-0.06,0.04-0.09
		c1.11-2.15,2.23-4.29,3.34-6.44c0.05-0.09,0.1-0.18,0.19-0.25c0.2-0.17,0.48-0.16,0.67,0.02c0.07,0.07,0.13,0.15,0.17,0.24
		c0.43,0.86,0.85,1.71,1.28,2.57c1.39,2.8,2.77,5.6,4.16,8.4c0.07,0.15,0.15,0.3,0.22,0.45c0.06,0.13,0.09,0.27,0.06,0.41
		c-0.05,0.24-0.25,0.4-0.51,0.42c-0.04,0-0.08,0-0.12,0c-1.82,0-3.65,0-5.47,0c-0.04,0-0.07,0-0.13,0c-0.01-0.23,0-0.45,0-0.69
		c0.17,0,0.33,0,0.49,0c0.17,0,0.33,0,0.5,0c0.16,0,0.33,0,0.49,0c0.17,0,0.33,0,0.5,0c0.16,0,0.33,0,0.49,0c0.17,0,0.33,0,0.5,0
		c0.16,0,0.33,0,0.49,0c0.17,0,0.33,0,0.5,0c0.16,0,0.33,0,0.49,0c0.17,0,0.33,0,0.5,0c0.16,0,0.32,0,0.51,0
		C21.99,16.42,20.18,12.76,18.35,9.07z"/>
	<path class="st0" d="M11.79,21.76c-0.11,0-0.21,0-0.32,0c0.04-0.18,0.1-0.35,0.17-0.52C11.68,21.4,11.73,21.57,11.79,21.76z"/>
	<path class="st0" d="M8.37,21.24c0.05,0.17,0.1,0.33,0.15,0.51c-0.11,0-0.21,0-0.33,0c0.03-0.09,0.05-0.17,0.07-0.26
		c0.02-0.08,0.05-0.17,0.08-0.25C8.36,21.25,8.37,21.25,8.37,21.24z"/>
	<path class="st0" d="M20.59,21.46c0-0.11,0-0.2,0-0.31c0.08,0,0.16-0.01,0.23,0c0.08,0.01,0.12,0.06,0.12,0.16
		c0,0.09-0.04,0.15-0.13,0.15C20.75,21.46,20.67,21.46,20.59,21.46z"/>
	<path class="st0" d="M13.76,23.49c-0.09,0-0.16,0-0.25,0c0.04-0.13,0.08-0.25,0.11-0.37c0.01,0,0.01,0,0.02,0
		C13.69,23.24,13.72,23.36,13.76,23.49z"/>
</g>
</svg>
